<?xml version="1.0" encoding="utf-8"?>
<!-- Generator: Adobe Illustrator 25.4.1, SVG Export Plug-In . SVG Version: 6.00 Build 0)  -->
<svg version="1.1" id="Layer_1" xmlns="http://www.w3.org/2000/svg" xmlns:xlink="http://www.w3.org/1999/xlink" x="0px" y="0px"
	 viewBox="0 0 56.7 56.7" style="enable-background:new 0 0 56.7 56.7;" xml:space="preserve">
<g>
	<path d="M19.2,22.7l8.8-5.1c0.2-0.1,0.5-0.1,0.7,0l8.8,5.1c0.2,0.1,0.4,0.4,0.4,0.6v10.1c0,0.3-0.1,0.5-0.4,0.6l-8.8,5.1
		c-0.2,0.1-0.5,0.1-0.7,0L19.2,34c-0.2-0.1-0.4-0.4-0.4-0.6V23.3C18.9,23,19,22.8,19.2,22.7"/>
	<path d="M51.1,27.4L40.7,9.2c-0.4-0.7-1.1-1.1-1.8-1.1h-21c-0.8,0-1.5,0.5-1.8,1.1L5.6,27.4c-0.4,0.7-0.4,1.5,0,2.1L16,47.6
		c0.4,0.7,1.1,1,1.8,1h21c0.8,0,1.5-0.3,1.8-1l10.5-18.1C51.5,28.9,51.5,28.1,51.1,27.4 M42.5,36.2c0,0.3-0.2,0.5-0.4,0.7l-13.3,7.7
		c-0.2,0.1-0.5,0.1-0.8,0l-13.4-7.7c-0.2-0.1-0.4-0.4-0.4-0.7V20.8c0-0.3,0.2-0.5,0.4-0.6L28,12.5c0.2-0.1,0.5-0.1,0.8,0l13.4,7.7
		c0.2,0.1,0.4,0.4,0.4,0.6L42.5,36.2z"/>
</g>
</svg>
