<svg xmlns="http://www.w3.org/2000/svg" viewBox="0 0 2142.86 2500">
    <path d="M1845.24,476.19h119a59.53,59.53,0,0,1,0,119.05h-119a59.53,59.53,0,1,1,0-119Z" transform="translate(0 0)"/>
    <path d="M59.52,2381H654.76a59.53,59.53,0,1,1,0,119.05H59.52a59.53,59.53,0,0,1,0-119.05Z"
          transform="translate(0 0)"/>
    <path d="M1488.1,1428.57h357.14a59.53,59.53,0,0,1,0,119H1488.1a59.53,59.53,0,1,1,0-119Z"
          transform="translate(0 0)"/>
    <path d="M773.81,1428.57H1250a59.53,59.53,0,0,1,0,119H773.81a59.53,59.53,0,0,1,0-119Z" transform="translate(0 0)"/>
    <path d="M59.52,1428.57H535.71a59.53,59.53,0,1,1,0,119H59.52a59.53,59.53,0,0,1,0-119Z" transform="translate(0 0)"/>
    <path d="M59.52,1904.76H654.76a59.53,59.53,0,1,1,0,119H59.52a59.53,59.53,0,0,1,0-119Z" transform="translate(0 0)"/>
    <path d="M59.52,952.38H654.76a59.53,59.53,0,1,1,0,119.05H59.52a59.53,59.53,0,0,1,0-119.05Z"
          transform="translate(0 0)"/>
    <path d="M654.76,238.1H1845.24a59.52,59.52,0,0,1,0,119H654.76a59.52,59.52,0,1,1,0-119Z" transform="translate(0 0)"/>
    <path d="M59.52,238.1H416.67a59.52,59.52,0,0,1,0,119H59.52a59.52,59.52,0,0,1,0-119Z" transform="translate(0 0)"/>
    <path d="M535.71,2142.86h119a59.52,59.52,0,1,1,0,119h-119a59.52,59.52,0,0,1,0-119Z" transform="translate(0 0)"/>
    <path d="M535.71,714.29h119a59.52,59.52,0,1,1,0,119h-119a59.52,59.52,0,0,1,0-119Z" transform="translate(0 0)"/>
    <path d="M59.52,2142.86h238.1a59.52,59.52,0,0,1,0,119H59.52a59.52,59.52,0,0,1,0-119Z" transform="translate(0 0)"/>
    <path d="M59.52,714.29h238.1a59.52,59.52,0,0,1,0,119H59.52a59.52,59.52,0,0,1,0-119Z" transform="translate(0 0)"/>
    <path d="M1011.9,1190.48h952.39a59.52,59.52,0,0,1,0,119H1011.9a59.52,59.52,0,0,1,0-119Z"
          transform="translate(0 0)"/>
    <path d="M416.67,1190.48H773.81a59.52,59.52,0,1,1,0,119H416.67a59.52,59.52,0,1,1,0-119Z"
          transform="translate(0 0)"/>
    <path d="M59.52,1190.48h119a59.52,59.52,0,1,1,0,119h-119a59.52,59.52,0,0,1,0-119Z" transform="translate(0 0)"/>
    <path d="M1131,476.19h476.19a59.53,59.53,0,1,1,0,119.05H1131a59.53,59.53,0,0,1,0-119Z" transform="translate(0 0)"/>
    <path d="M59.52,476.19H892.86a59.53,59.53,0,0,1,0,119.05H59.52a59.53,59.53,0,0,1,0-119Z"
          transform="translate(0 0)"/>
    <path d="M416.67,1666.67H1488.1a59.52,59.52,0,0,1,0,119H416.67a59.52,59.52,0,1,1,0-119Z"
          transform="translate(0 0)"/>
    <path d="M59.52,1666.67h119a59.52,59.52,0,1,1,0,119h-119a59.52,59.52,0,0,1,0-119Z" transform="translate(0 0)"/>
    <path d="M1488.1,714.29h595.23a59.52,59.52,0,1,1,0,119H1488.1a59.52,59.52,0,1,1,0-119Z" transform="translate(0 0)"/>
    <path d="M1488.1,952.38h595.23a59.53,59.53,0,1,1,0,119.05H1488.1a59.53,59.53,0,1,1,0-119.05Z"
          transform="translate(0 0)"/>
    <path d="M59.52,0H1488.1a58.94,58.94,0,0,1,59.52,59.52,59,59,0,0,1-59.52,59.53H59.52A59,59,0,0,1,0,59.52,58.94,58.94,0,0,1,59.52,0Z"
          transform="translate(0 0)"/>
</svg>
