<svg id="Layer_1" data-name="Layer 1" xmlns="http://www.w3.org/2000/svg" viewBox="0 0 75.15 56.34"><path d="M87.12,34.18a15.54,15.54,0,0,0-6.81,1.59,14.05,14.05,0,0,1-1.53-3.53,9.82,9.82,0,0,1-.13-3,23.14,23.14,0,0,1,.9-3.2c0-.13-.16-.78-1.68-.79s-2.82.29-3,.7a17.31,17.31,0,0,0-.63,2.24c-.26,1.38-3,6.27-4.59,8.84a8.93,8.93,0,0,1-1-2.58,9.57,9.57,0,0,1-.14-3,25.24,25.24,0,0,1,.9-3.2c0-.13-.16-.78-1.67-.79s-2.82.29-3,.7-.31,1.33-.63,2.24-4,9.08-4.93,11.2c-.49,1.09-.9,2-1.22,2.54s0,0,0,.11l-.41.77v0c-.2.37-.42.72-.53.72a4.93,4.93,0,0,1,0-2.33c.55-2.84,1.87-7.26,1.85-7.42s.25-.85-.85-1.25a1.35,1.35,0,0,0-1.54.27c-.08,0-.16.23-.16.23s1.19-5-2.27-5c-2.18,0-5.17,2.37-6.65,4.53L39.91,39l-.16-.17c-4.2-4.48-12-7.65-11.64-13.67.12-2.19.88-8,14.91-14.95,11.5-5.72,20.7-4.15,22.3-.66,2.28,5-4.91,14.27-16.86,15.61-4.55.51-7-1.25-7.55-1.91s-.72-.72-.95-.58c-.39.2-.15.82,0,1.19a7.09,7.09,0,0,0,4.31,3.39c2.19.71,7.53,1.11,14-1.38C65.5,23,71.15,15.23,69.49,8.73s-12.67-8.8-23-5.11c-6.18,2.2-12.87,5.63-17.69,10.14-5.73,5.34-6.64,10-6.25,12,1.33,6.92,10.86,11.42,14.68,14.75l-.53.3c-1.91.94-9.18,4.74-11,8.76-2,4.55.32,7.83,1.91,8.27,4.9,1.36,9.92-1.09,12.64-5.13S42.58,43.38,41.33,41l0-.09,1.5-.88c.91-.53,1.83-1.05,2.76-1.55a18.08,18.08,0,0,0-1,5c-.21,2.58.85,5.93,2.24,7.25a2.51,2.51,0,0,0,1.81.59c1.61,0,2.35-1.34,3.15-2.94,1-2,1.89-4.21,1.89-4.21s-1.1,6.12,1.9,6.12c1.1,0,2.21-1.42,2.7-2.16v0l.09-.15.18-.28v0c.44-.76,1.42-2.5,2.89-5.4,1.89-3.73,3.71-8.4,3.71-8.4a27.36,27.36,0,0,0,.72,3,30.45,30.45,0,0,0,1.57,3.53l-.7,1h0c-.35.47-.75,1-1.16,1.47A42.41,42.41,0,0,0,62,47.29a1.22,1.22,0,0,0,.32,1.62,3,3,0,0,0,1.85.29A8.38,8.38,0,0,0,67,48.57a9.33,9.33,0,0,0,2.38-1.25,5.31,5.31,0,0,0,2.28-4.68,9.39,9.39,0,0,0-.87-3.3l.4-.59a61.71,61.71,0,0,0,4.11-7.12,25.23,25.23,0,0,0,.72,3,21.07,21.07,0,0,0,1.33,3,13,13,0,0,0-4,5.18c-.87,2.49-.2,3.62,1.08,3.9a3.91,3.91,0,0,0,2-.41A9.2,9.2,0,0,0,79,45c1.47-1.08,2.88-2.6,2.81-4.64a9.26,9.26,0,0,0-.63-2.74,14.19,14.19,0,0,1,7.28-.84c6.53.76,7.82,4.84,7.57,6.55a4.35,4.35,0,0,1-2.07,2.93c-.45.28-.6.39-.56.59s.27.29.66.24a5.09,5.09,0,0,0,3.56-4.54c.17-4-3.66-8.44-10.46-8.4Zm-50.38,17c-2.16,2.36-5.2,3.26-6.49,2.49s-.85-4.28,1.8-6.79a35,35,0,0,1,5.1-3.81l1.33-.8.15-.09L39,42a9.39,9.39,0,0,1-2.23,9.21ZM52.52,40.43c-.75,1.84-2.34,6.55-3.29,6.29s-1.32-3.79-.16-7.31a16.46,16.46,0,0,1,2.57-4.72c1.19-1.32,2.48-1.76,2.8-1.21.39.7-1.45,5.81-1.92,7Zm13,6.23c-.32.16-.62.28-.75.19s.13-.28.13-.28S66.55,44.82,67.2,44l1.28-1.63v.17c0,2.12-2,3.52-2.94,4.1Zm10-2.3c-.23-.18-.2-.72.59-2.42a9,9,0,0,1,2.23-2.88,3.68,3.68,0,0,1,.22,1.26,4.13,4.13,0,0,1-3,4Z" transform="translate(-22.42 -1.83)"/></svg>